<svg width="438" height="67" viewBox="0 0 438 67" fill="none" xmlns="http://www.w3.org/2000/svg">
<path d="M1.51705 23V5.54545H13.2784V8.58807H5.20739V12.7472H12.6733V15.7898H5.20739V19.9574H13.3125V23H1.51705ZM18.2663 23.2216C17.7038 23.2216 17.2209 23.0227 16.8175 22.625C16.4197 22.2216 16.2209 21.7386 16.2209 21.1761C16.2209 20.6193 16.4197 20.142 16.8175 19.7443C17.2209 19.3466 17.7038 19.1477 18.2663 19.1477C18.8118 19.1477 19.2891 19.3466 19.6982 19.7443C20.1072 20.142 20.3118 20.6193 20.3118 21.1761C20.3118 21.5511 20.2152 21.8949 20.022 22.2074C19.8345 22.5142 19.5874 22.7614 19.2805 22.9489C18.9737 23.1307 18.6357 23.2216 18.2663 23.2216ZM34.9347 11.1875C34.8153 10.7727 34.6477 10.4062 34.4318 10.0881C34.2159 9.7642 33.9517 9.49148 33.6392 9.26989C33.3324 9.04261 32.9801 8.86932 32.5824 8.75C32.1903 8.63068 31.7557 8.57102 31.2784 8.57102C30.3864 8.57102 29.6023 8.79261 28.9261 9.23579C28.2557 9.67898 27.733 10.3239 27.358 11.1705C26.983 12.0114 26.7955 13.0398 26.7955 14.2557C26.7955 15.4716 26.9801 16.5057 27.3494 17.358C27.7188 18.2102 28.2415 18.8608 28.9176 19.3097C29.5938 19.7528 30.392 19.9744 31.3125 19.9744C32.1477 19.9744 32.8608 19.8267 33.4517 19.5312C34.0483 19.2301 34.5028 18.8068 34.8153 18.2614C35.1335 17.7159 35.2926 17.071 35.2926 16.3267L36.0426 16.4375H31.5426V13.6591H38.8466V15.858C38.8466 17.392 38.5227 18.7102 37.875 19.8125C37.2273 20.9091 36.3352 21.7557 35.1989 22.3523C34.0625 22.9432 32.7614 23.2386 31.2955 23.2386C29.6591 23.2386 28.2216 22.8778 26.983 22.1562C25.7443 21.429 24.7784 20.3977 24.0852 19.0625C23.3977 17.7216 23.054 16.1307 23.054 14.2898C23.054 12.875 23.2585 11.6136 23.6676 10.5057C24.0824 9.39205 24.6619 8.44886 25.4062 7.67614C26.1506 6.90341 27.017 6.31534 28.0057 5.91193C28.9943 5.50852 30.0653 5.30682 31.2188 5.30682C32.2074 5.30682 33.1278 5.4517 33.9801 5.74148C34.8324 6.02557 35.5881 6.42898 36.2472 6.9517C36.9119 7.47443 37.4545 8.09659 37.875 8.81818C38.2955 9.53409 38.5653 10.3239 38.6847 11.1875H34.9347ZM43.6726 23.2216C43.1101 23.2216 42.6271 23.0227 42.2237 22.625C41.826 22.2216 41.6271 21.7386 41.6271 21.1761C41.6271 20.6193 41.826 20.142 42.2237 19.7443C42.6271 19.3466 43.1101 19.1477 43.6726 19.1477C44.218 19.1477 44.6953 19.3466 45.1044 19.7443C45.5135 20.142 45.718 20.6193 45.718 21.1761C45.718 21.5511 45.6214 21.8949 45.4283 22.2074C45.2408 22.5142 44.9936 22.7614 44.6868 22.9489C44.38 23.1307 44.0419 23.2216 43.6726 23.2216ZM58.2358 10.5653C58.1676 9.87784 57.875 9.34375 57.358 8.96307C56.8409 8.58239 56.1392 8.39204 55.2528 8.39204C54.6506 8.39204 54.142 8.47727 53.7273 8.64773C53.3125 8.8125 52.9943 9.04261 52.7727 9.33807C52.5568 9.63352 52.4489 9.96875 52.4489 10.3438C52.4375 10.6562 52.5028 10.929 52.6449 11.1619C52.7926 11.3949 52.9943 11.5966 53.25 11.767C53.5057 11.9318 53.8011 12.0767 54.1364 12.2017C54.4716 12.321 54.8295 12.4233 55.2102 12.5085L56.7784 12.8835C57.5398 13.054 58.2386 13.2812 58.875 13.5653C59.5114 13.8494 60.0625 14.1989 60.5284 14.6136C60.9943 15.0284 61.3551 15.517 61.6108 16.0795C61.8722 16.642 62.0057 17.2869 62.0114 18.0142C62.0057 19.0824 61.733 20.0085 61.1932 20.7926C60.6591 21.571 59.8864 22.1761 58.875 22.608C57.8693 23.0341 56.6563 23.2472 55.2358 23.2472C53.8267 23.2472 52.5994 23.0312 51.554 22.5994C50.5142 22.1676 49.7017 21.5284 49.1165 20.6818C48.5369 19.8295 48.233 18.7756 48.2045 17.5199H51.7756C51.8153 18.1051 51.983 18.5937 52.2784 18.9858C52.5795 19.3722 52.9801 19.6648 53.4801 19.8636C53.9858 20.0568 54.5568 20.1534 55.1932 20.1534C55.8182 20.1534 56.3608 20.0625 56.821 19.8807C57.2869 19.6989 57.6477 19.446 57.9034 19.1222C58.1591 18.7983 58.2869 18.4261 58.2869 18.0057C58.2869 17.6136 58.1705 17.2841 57.9375 17.017C57.7102 16.75 57.375 16.5227 56.9318 16.3352C56.4943 16.1477 55.9574 15.9773 55.321 15.8239L53.4205 15.3466C51.9489 14.9886 50.7869 14.429 49.9347 13.6676C49.0824 12.9062 48.6591 11.8807 48.6648 10.5909C48.6591 9.53409 48.9403 8.6108 49.5085 7.82102C50.0824 7.03125 50.8693 6.41477 51.8693 5.97159C52.8693 5.52841 54.0057 5.30682 55.2784 5.30682C56.5739 5.30682 57.7045 5.52841 58.6705 5.97159C59.642 6.41477 60.3977 7.03125 60.9375 7.82102C61.4773 8.6108 61.7557 9.52557 61.7727 10.5653H58.2358ZM70.0483 23V5.54545H76.9347C78.2585 5.54545 79.3864 5.7983 80.3182 6.30398C81.25 6.80398 81.9602 7.5 82.4489 8.39204C82.9432 9.27841 83.1903 10.3011 83.1903 11.4602C83.1903 12.6193 82.9403 13.642 82.4403 14.5284C81.9403 15.4148 81.2159 16.1051 80.267 16.5994C79.3239 17.0937 78.1818 17.3409 76.8409 17.3409H72.4517V14.3835H76.2443C76.9545 14.3835 77.5398 14.2614 78 14.017C78.4659 13.767 78.8125 13.4233 79.0398 12.9858C79.2727 12.5426 79.3892 12.0341 79.3892 11.4602C79.3892 10.8807 79.2727 10.375 79.0398 9.94318C78.8125 9.50568 78.4659 9.16761 78 8.92898C77.5341 8.68466 76.9432 8.5625 76.2273 8.5625H73.7386V23H70.0483ZM89.2777 5.54545V23H85.5874V5.54545H89.2777ZM92.3139 23V5.54545H96.0043V19.9574H103.487V23H92.3139ZM105.931 23V5.54545H109.621V19.9574H117.104V23H105.931ZM123.002 23H119.048L125.073 5.54545H129.829L135.846 23H131.891L127.519 9.53409H127.383L123.002 23ZM122.755 16.1392H132.096V19.0199H122.755V16.1392ZM135.143 5.54545H139.276L143.256 13.0625H143.427L147.407 5.54545H151.54L145.174 16.8295V23H141.509V16.8295L135.143 5.54545ZM159.111 23V5.54545H170.872V8.58807H162.801V12.7472H170.267V15.7898H162.801V19.9574H170.906V23H159.111ZM188.406 5.54545V23H185.218L177.624 12.0142H177.496V23H173.806V5.54545H177.045L184.579 16.5227H184.732V5.54545H188.406ZM203.028 11.1875C202.909 10.7727 202.741 10.4062 202.526 10.0881C202.31 9.7642 202.045 9.49148 201.733 9.26989C201.426 9.04261 201.074 8.86932 200.676 8.75C200.284 8.63068 199.849 8.57102 199.372 8.57102C198.48 8.57102 197.696 8.79261 197.02 9.23579C196.349 9.67898 195.827 10.3239 195.452 11.1705C195.077 12.0114 194.889 13.0398 194.889 14.2557C194.889 15.4716 195.074 16.5057 195.443 17.358C195.813 18.2102 196.335 18.8608 197.011 19.3097C197.688 19.7528 198.486 19.9744 199.406 19.9744C200.241 19.9744 200.955 19.8267 201.545 19.5312C202.142 19.2301 202.597 18.8068 202.909 18.2614C203.227 17.7159 203.386 17.071 203.386 16.3267L204.136 16.4375H199.636V13.6591H206.94V15.858C206.94 17.392 206.616 18.7102 205.969 19.8125C205.321 20.9091 204.429 21.7557 203.293 22.3523C202.156 22.9432 200.855 23.2386 199.389 23.2386C197.753 23.2386 196.315 22.8778 195.077 22.1562C193.838 21.429 192.872 20.3977 192.179 19.0625C191.491 17.7216 191.148 16.1307 191.148 14.2898C191.148 12.875 191.352 11.6136 191.761 10.5057C192.176 9.39205 192.756 8.44886 193.5 7.67614C194.244 6.90341 195.111 6.31534 196.099 5.91193C197.088 5.50852 198.159 5.30682 199.312 5.30682C200.301 5.30682 201.222 5.4517 202.074 5.74148C202.926 6.02557 203.682 6.42898 204.341 6.9517C205.006 7.47443 205.548 8.09659 205.969 8.81818C206.389 9.53409 206.659 10.3239 206.778 11.1875H203.028ZM213.403 5.54545V23H209.712V5.54545H213.403ZM231.038 5.54545V23H227.851L220.257 12.0142H220.129V23H216.439V5.54545H219.678L227.212 16.5227H227.365V5.54545H231.038ZM234.087 23V5.54545H245.849V8.58807H237.778V12.7472H245.244V15.7898H237.778V19.9574H245.883V23H234.087ZM248.783 23V5.54545H260.544V8.58807H252.473V12.7472H259.939V15.7898H252.473V19.9574H260.578V23H248.783ZM263.478 23V5.54545H270.364C271.683 5.54545 272.808 5.78125 273.739 6.25284C274.677 6.71875 275.39 7.38068 275.879 8.23864C276.373 9.09091 276.62 10.0937 276.62 11.2472C276.62 12.4062 276.37 13.4034 275.87 14.2386C275.37 15.0682 274.646 15.7045 273.697 16.1477C272.754 16.5909 271.612 16.8125 270.271 16.8125H265.66V13.8466H269.674C270.379 13.8466 270.964 13.75 271.43 13.5568C271.896 13.3636 272.242 13.0739 272.469 12.6875C272.702 12.3011 272.819 11.821 272.819 11.2472C272.819 10.6676 272.702 10.179 272.469 9.78125C272.242 9.38352 271.893 9.08239 271.421 8.87784C270.955 8.66761 270.367 8.5625 269.657 8.5625H267.168V23H263.478ZM272.904 15.0568L277.242 23H273.168L268.924 15.0568H272.904ZM282.918 5.54545V23H279.228V5.54545H282.918ZM300.554 5.54545V23H297.366L289.773 12.0142H289.645V23H285.955V5.54545H289.193L296.727 16.5227H296.881V5.54545H300.554ZM315.177 11.1875C315.058 10.7727 314.89 10.4062 314.674 10.0881C314.458 9.7642 314.194 9.49148 313.881 9.26989C313.575 9.04261 313.222 8.86932 312.825 8.75C312.433 8.63068 311.998 8.57102 311.521 8.57102C310.629 8.57102 309.844 8.79261 309.168 9.23579C308.498 9.67898 307.975 10.3239 307.6 11.1705C307.225 12.0114 307.038 13.0398 307.038 14.2557C307.038 15.4716 307.222 16.5057 307.592 17.358C307.961 18.2102 308.484 18.8608 309.16 19.3097C309.836 19.7528 310.634 19.9744 311.555 19.9744C312.39 19.9744 313.103 19.8267 313.694 19.5312C314.29 19.2301 314.745 18.8068 315.058 18.2614C315.376 17.7159 315.535 17.071 315.535 16.3267L316.285 16.4375H311.785V13.6591H319.089V15.858C319.089 17.392 318.765 18.7102 318.117 19.8125C317.469 20.9091 316.577 21.7557 315.441 22.3523C314.305 22.9432 313.004 23.2386 311.538 23.2386C309.901 23.2386 308.464 22.8778 307.225 22.1562C305.987 21.429 305.021 20.3977 304.327 19.0625C303.64 17.7216 303.296 16.1307 303.296 14.2898C303.296 12.875 303.501 11.6136 303.91 10.5057C304.325 9.39205 304.904 8.44886 305.648 7.67614C306.393 6.90341 307.259 6.31534 308.248 5.91193C309.237 5.50852 310.308 5.30682 311.461 5.30682C312.45 5.30682 313.37 5.4517 314.222 5.74148C315.075 6.02557 315.83 6.42898 316.489 6.9517C317.154 7.47443 317.697 8.09659 318.117 8.81818C318.538 9.53409 318.808 10.3239 318.927 11.1875H315.177ZM342.816 11.6562H339.083C339.015 11.1733 338.876 10.7443 338.665 10.3693C338.455 9.98864 338.185 9.66477 337.856 9.39773C337.526 9.13068 337.146 8.92614 336.714 8.78409C336.288 8.64205 335.825 8.57102 335.325 8.57102C334.421 8.57102 333.634 8.79545 332.964 9.24432C332.293 9.6875 331.773 10.3352 331.404 11.1875C331.035 12.0341 330.85 13.0625 330.85 14.2727C330.85 15.517 331.035 16.5625 331.404 17.4091C331.779 18.2557 332.302 18.8949 332.972 19.3267C333.643 19.7585 334.418 19.9744 335.299 19.9744C335.793 19.9744 336.251 19.9091 336.671 19.7784C337.097 19.6477 337.475 19.4574 337.805 19.2074C338.134 18.9517 338.407 18.642 338.623 18.2784C338.844 17.9148 338.998 17.5 339.083 17.0341L342.816 17.0511C342.719 17.8523 342.478 18.625 342.092 19.3693C341.711 20.108 341.197 20.7699 340.549 21.3551C339.907 21.9347 339.14 22.3949 338.248 22.7358C337.362 23.071 336.359 23.2386 335.239 23.2386C333.683 23.2386 332.29 22.8864 331.063 22.1818C329.842 21.4773 328.876 20.4574 328.165 19.1222C327.461 17.7869 327.109 16.1705 327.109 14.2727C327.109 12.3693 327.467 10.75 328.183 9.41477C328.898 8.07955 329.87 7.0625 331.097 6.36364C332.325 5.65909 333.705 5.30682 335.239 5.30682C336.251 5.30682 337.188 5.44886 338.052 5.73295C338.921 6.01705 339.691 6.43182 340.362 6.97727C341.032 7.51704 341.577 8.17898 341.998 8.96307C342.424 9.74716 342.697 10.6449 342.816 11.6562ZM361.502 14.2727C361.502 16.1761 361.141 17.7955 360.42 19.1307C359.704 20.4659 358.727 21.4858 357.488 22.1903C356.255 22.8892 354.869 23.2386 353.329 23.2386C351.778 23.2386 350.386 22.8864 349.153 22.1818C347.92 21.4773 346.945 20.4574 346.229 19.1222C345.513 17.7869 345.156 16.1705 345.156 14.2727C345.156 12.3693 345.513 10.75 346.229 9.41477C346.945 8.07955 347.92 7.0625 349.153 6.36364C350.386 5.65909 351.778 5.30682 353.329 5.30682C354.869 5.30682 356.255 5.65909 357.488 6.36364C358.727 7.0625 359.704 8.07955 360.42 9.41477C361.141 10.75 361.502 12.3693 361.502 14.2727ZM357.761 14.2727C357.761 13.0398 357.576 12 357.207 11.1534C356.843 10.3068 356.329 9.66477 355.664 9.22727C354.999 8.78977 354.221 8.57102 353.329 8.57102C352.437 8.57102 351.658 8.78977 350.994 9.22727C350.329 9.66477 349.812 10.3068 349.442 11.1534C349.079 12 348.897 13.0398 348.897 14.2727C348.897 15.5057 349.079 16.5455 349.442 17.392C349.812 18.2386 350.329 18.8807 350.994 19.3182C351.658 19.7557 352.437 19.9744 353.329 19.9744C354.221 19.9744 354.999 19.7557 355.664 19.3182C356.329 18.8807 356.843 18.2386 357.207 17.392C357.576 16.5455 357.761 15.5057 357.761 14.2727ZM364.236 23V5.54545H367.926V19.9574H375.409V23H364.236ZM377.853 23V5.54545H381.543V19.9574H389.026V23H377.853ZM391.47 23V5.54545H403.232V8.58807H395.161V12.7472H402.626V15.7898H395.161V19.9574H403.266V23H391.47ZM421.566 11.6562H417.833C417.765 11.1733 417.626 10.7443 417.415 10.3693C417.205 9.98864 416.935 9.66477 416.606 9.39773C416.276 9.13068 415.896 8.92614 415.464 8.78409C415.038 8.64205 414.575 8.57102 414.075 8.57102C413.171 8.57102 412.384 8.79545 411.714 9.24432C411.043 9.6875 410.523 10.3352 410.154 11.1875C409.785 12.0341 409.6 13.0625 409.6 14.2727C409.6 15.517 409.785 16.5625 410.154 17.4091C410.529 18.2557 411.052 18.8949 411.722 19.3267C412.393 19.7585 413.168 19.9744 414.049 19.9744C414.543 19.9744 415.001 19.9091 415.421 19.7784C415.847 19.6477 416.225 19.4574 416.555 19.2074C416.884 18.9517 417.157 18.642 417.373 18.2784C417.594 17.9148 417.748 17.5 417.833 17.0341L421.566 17.0511C421.469 17.8523 421.228 18.625 420.842 19.3693C420.461 20.108 419.947 20.7699 419.299 21.3551C418.657 21.9347 417.89 22.3949 416.998 22.7358C416.112 23.071 415.109 23.2386 413.989 23.2386C412.433 23.2386 411.04 22.8864 409.813 22.1818C408.592 21.4773 407.626 20.4574 406.915 19.1222C406.211 17.7869 405.859 16.1705 405.859 14.2727C405.859 12.3693 406.217 10.75 406.933 9.41477C407.648 8.07955 408.62 7.0625 409.847 6.36364C411.075 5.65909 412.455 5.30682 413.989 5.30682C415.001 5.30682 415.938 5.44886 416.802 5.73295C417.671 6.01705 418.441 6.43182 419.112 6.97727C419.782 7.51704 420.327 8.17898 420.748 8.96307C421.174 9.74716 421.447 10.6449 421.566 11.6562ZM424.212 23V5.54545H435.974V8.58807H427.903V12.7472H435.369V15.7898H427.903V19.9574H436.008V23H424.212Z" fill="#172B3B"/>
<path d="M8.87305 44H7.60156L6.5625 41.252H2.40625L1.42871 44H0.150391L3.91016 34.1973H5.09961L8.87305 44ZM6.18652 40.2197L4.64844 36.043C4.59831 35.9062 4.54818 35.6875 4.49805 35.3867H4.4707C4.42513 35.6647 4.37272 35.8835 4.31348 36.043L2.78906 40.2197H6.18652ZM15.9824 44H14.8613V40.0078C14.8613 38.5221 14.319 37.7793 13.2344 37.7793C12.6738 37.7793 12.209 37.9912 11.8398 38.415C11.4753 38.8343 11.293 39.3652 11.293 40.0078V44H10.1719V37H11.293V38.1621H11.3203C11.849 37.278 12.6146 36.8359 13.6172 36.8359C14.3828 36.8359 14.9684 37.0843 15.374 37.5811C15.7796 38.0732 15.9824 38.7865 15.9824 39.7207V44ZM29.6816 44H28.4102L27.3711 41.252H23.2148L22.2373 44H20.959L24.7188 34.1973H25.9082L29.6816 44ZM26.9951 40.2197L25.457 36.043C25.4069 35.9062 25.3568 35.6875 25.3066 35.3867H25.2793C25.2337 35.6647 25.1813 35.8835 25.1221 36.043L23.5977 40.2197H26.9951ZM36.6406 44H35.5195V42.8926H35.4922C35.0273 43.7402 34.3073 44.1641 33.332 44.1641C31.6641 44.1641 30.8301 43.1706 30.8301 41.1836V37H31.9443V41.0059C31.9443 42.4824 32.5094 43.2207 33.6396 43.2207C34.1865 43.2207 34.6354 43.0202 34.9863 42.6191C35.3418 42.2135 35.5195 41.6849 35.5195 41.0332V37H36.6406V44ZM42.1572 43.9316C41.8929 44.0775 41.5443 44.1504 41.1113 44.1504C39.8854 44.1504 39.2725 43.4668 39.2725 42.0996V37.957H38.0693V37H39.2725V35.291L40.3936 34.9287V37H42.1572V37.957H40.3936V41.9014C40.3936 42.3708 40.4733 42.7057 40.6328 42.9062C40.7923 43.1068 41.0566 43.207 41.4258 43.207C41.7083 43.207 41.9521 43.1296 42.1572 42.9746V43.9316ZM46.5801 44.1641C45.5456 44.1641 44.7184 43.8382 44.0986 43.1865C43.4834 42.5303 43.1758 41.6621 43.1758 40.582C43.1758 39.4062 43.4971 38.488 44.1396 37.8271C44.7822 37.1663 45.6504 36.8359 46.7441 36.8359C47.7878 36.8359 48.6012 37.1572 49.1846 37.7998C49.7725 38.4424 50.0664 39.3333 50.0664 40.4727C50.0664 41.5892 49.7497 42.4847 49.1162 43.1592C48.4873 43.8291 47.6419 44.1641 46.5801 44.1641ZM46.6621 37.7793C45.9421 37.7793 45.3724 38.0254 44.9531 38.5176C44.5339 39.0052 44.3242 39.6797 44.3242 40.541C44.3242 41.3704 44.5361 42.0244 44.96 42.5029C45.3838 42.9814 45.9512 43.2207 46.6621 43.2207C47.3867 43.2207 47.9427 42.986 48.3301 42.5166C48.722 42.0472 48.918 41.3796 48.918 40.5137C48.918 39.6387 48.722 38.9642 48.3301 38.4902C47.9427 38.0163 47.3867 37.7793 46.6621 37.7793ZM57.668 44H56.5469V40.0078C56.5469 38.5221 56.0046 37.7793 54.9199 37.7793C54.3594 37.7793 53.8945 37.9912 53.5254 38.415C53.1608 38.8343 52.9785 39.3652 52.9785 40.0078V44H51.8574V37H52.9785V38.1621H53.0059C53.5345 37.278 54.3001 36.8359 55.3027 36.8359C56.0684 36.8359 56.654 37.0843 57.0596 37.5811C57.4652 38.0732 57.668 38.7865 57.668 39.7207V44ZM62.7129 44.1641C61.6784 44.1641 60.8512 43.8382 60.2314 43.1865C59.6162 42.5303 59.3086 41.6621 59.3086 40.582C59.3086 39.4062 59.6299 38.488 60.2725 37.8271C60.915 37.1663 61.7832 36.8359 62.877 36.8359C63.9206 36.8359 64.734 37.1572 65.3174 37.7998C65.9053 38.4424 66.1992 39.3333 66.1992 40.4727C66.1992 41.5892 65.8825 42.4847 65.249 43.1592C64.6201 43.8291 63.7747 44.1641 62.7129 44.1641ZM62.7949 37.7793C62.0749 37.7793 61.5052 38.0254 61.0859 38.5176C60.6667 39.0052 60.457 39.6797 60.457 40.541C60.457 41.3704 60.6689 42.0244 61.0928 42.5029C61.5166 42.9814 62.084 43.2207 62.7949 43.2207C63.5195 43.2207 64.0755 42.986 64.4629 42.5166C64.8548 42.0472 65.0508 41.3796 65.0508 40.5137C65.0508 39.6387 64.8548 38.9642 64.4629 38.4902C64.0755 38.0163 63.5195 37.7793 62.7949 37.7793ZM77.9297 44H76.8086V39.9805C76.8086 39.2057 76.6878 38.6452 76.4463 38.2988C76.2093 37.9525 75.8083 37.7793 75.2432 37.7793C74.7646 37.7793 74.3568 37.998 74.0195 38.4355C73.6868 38.873 73.5205 39.3971 73.5205 40.0078V44H72.3994V39.8438C72.3994 38.4674 71.8685 37.7793 70.8066 37.7793C70.3145 37.7793 69.9089 37.9867 69.5898 38.4014C69.2708 38.8115 69.1113 39.347 69.1113 40.0078V44H67.9902V37H69.1113V38.1074H69.1387C69.6354 37.2598 70.36 36.8359 71.3125 36.8359C71.791 36.8359 72.208 36.9704 72.5635 37.2393C72.9189 37.5036 73.1628 37.8522 73.2949 38.2852C73.8145 37.319 74.5892 36.8359 75.6191 36.8359C77.1595 36.8359 77.9297 37.7861 77.9297 39.6865V44ZM82.9746 44.1641C81.9401 44.1641 81.113 43.8382 80.4932 43.1865C79.8779 42.5303 79.5703 41.6621 79.5703 40.582C79.5703 39.4062 79.8916 38.488 80.5342 37.8271C81.1768 37.1663 82.0449 36.8359 83.1387 36.8359C84.1823 36.8359 84.9958 37.1572 85.5791 37.7998C86.167 38.4424 86.4609 39.3333 86.4609 40.4727C86.4609 41.5892 86.1442 42.4847 85.5107 43.1592C84.8818 43.8291 84.0365 44.1641 82.9746 44.1641ZM83.0566 37.7793C82.3366 37.7793 81.7669 38.0254 81.3477 38.5176C80.9284 39.0052 80.7188 39.6797 80.7188 40.541C80.7188 41.3704 80.9307 42.0244 81.3545 42.5029C81.7783 42.9814 82.3457 43.2207 83.0566 43.2207C83.7812 43.2207 84.3372 42.986 84.7246 42.5166C85.1165 42.0472 85.3125 41.3796 85.3125 40.5137C85.3125 39.6387 85.1165 38.9642 84.7246 38.4902C84.3372 38.0163 83.7812 37.7793 83.0566 37.7793ZM93.9121 44H92.791V42.8926H92.7637C92.2988 43.7402 91.5788 44.1641 90.6035 44.1641C88.9355 44.1641 88.1016 43.1706 88.1016 41.1836V37H89.2158V41.0059C89.2158 42.4824 89.7809 43.2207 90.9111 43.2207C91.458 43.2207 91.9069 43.0202 92.2578 42.6191C92.6133 42.2135 92.791 41.6849 92.791 41.0332V37H93.9121V44ZM95.7578 43.7471V42.5439C96.3685 42.9951 97.0407 43.2207 97.7744 43.2207C98.7588 43.2207 99.251 42.8926 99.251 42.2363C99.251 42.0495 99.2077 41.8923 99.1211 41.7646C99.0391 41.6325 98.9251 41.5163 98.7793 41.416C98.638 41.3158 98.4694 41.2269 98.2734 41.1494C98.082 41.0674 97.8747 40.9831 97.6514 40.8965C97.3415 40.7734 97.068 40.6504 96.8311 40.5273C96.5986 40.3997 96.4027 40.2585 96.2432 40.1035C96.0882 39.944 95.9697 39.764 95.8877 39.5635C95.8102 39.363 95.7715 39.1283 95.7715 38.8594C95.7715 38.5312 95.8467 38.2419 95.9971 37.9912C96.1475 37.736 96.348 37.5241 96.5986 37.3555C96.8493 37.1823 97.1341 37.0524 97.4531 36.9658C97.7767 36.8792 98.1094 36.8359 98.4512 36.8359C99.0573 36.8359 99.5996 36.9408 100.078 37.1504V38.2852C99.5632 37.9479 98.9707 37.7793 98.3008 37.7793C98.0911 37.7793 97.902 37.8044 97.7334 37.8545C97.5648 37.9001 97.4189 37.9661 97.2959 38.0527C97.1774 38.1393 97.084 38.2441 97.0156 38.3672C96.9518 38.4857 96.9199 38.6178 96.9199 38.7637C96.9199 38.946 96.9518 39.0986 97.0156 39.2217C97.084 39.3447 97.182 39.4541 97.3096 39.5498C97.4372 39.6455 97.5921 39.7321 97.7744 39.8096C97.9567 39.887 98.1641 39.9714 98.3965 40.0625C98.7064 40.181 98.9844 40.304 99.2305 40.4316C99.4766 40.5547 99.6862 40.696 99.8594 40.8555C100.033 41.0104 100.165 41.1904 100.256 41.3955C100.352 41.6006 100.399 41.8444 100.399 42.127C100.399 42.4733 100.322 42.7741 100.167 43.0293C100.017 43.2845 99.8138 43.4964 99.5586 43.665C99.3034 43.8337 99.0094 43.959 98.6768 44.041C98.3441 44.123 97.9954 44.1641 97.6309 44.1641C96.9108 44.1641 96.2865 44.0251 95.7578 43.7471ZM107.27 44H106.121V34.1973H107.27V44ZM115.514 44H114.393V40.0078C114.393 38.5221 113.85 37.7793 112.766 37.7793C112.205 37.7793 111.74 37.9912 111.371 38.415C111.007 38.8343 110.824 39.3652 110.824 40.0078V44H109.703V37H110.824V38.1621H110.852C111.38 37.278 112.146 36.8359 113.148 36.8359C113.914 36.8359 114.5 37.0843 114.905 37.5811C115.311 38.0732 115.514 38.7865 115.514 39.7207V44ZM117.209 43.7471V42.5439C117.82 42.9951 118.492 43.2207 119.226 43.2207C120.21 43.2207 120.702 42.8926 120.702 42.2363C120.702 42.0495 120.659 41.8923 120.572 41.7646C120.49 41.6325 120.376 41.5163 120.23 41.416C120.089 41.3158 119.921 41.2269 119.725 41.1494C119.533 41.0674 119.326 40.9831 119.103 40.8965C118.793 40.7734 118.519 40.6504 118.282 40.5273C118.05 40.3997 117.854 40.2585 117.694 40.1035C117.539 39.944 117.421 39.764 117.339 39.5635C117.261 39.363 117.223 39.1283 117.223 38.8594C117.223 38.5312 117.298 38.2419 117.448 37.9912C117.599 37.736 117.799 37.5241 118.05 37.3555C118.3 37.1823 118.585 37.0524 118.904 36.9658C119.228 36.8792 119.561 36.8359 119.902 36.8359C120.508 36.8359 121.051 36.9408 121.529 37.1504V38.2852C121.014 37.9479 120.422 37.7793 119.752 37.7793C119.542 37.7793 119.353 37.8044 119.185 37.8545C119.016 37.9001 118.87 37.9661 118.747 38.0527C118.629 38.1393 118.535 38.2441 118.467 38.3672C118.403 38.4857 118.371 38.6178 118.371 38.7637C118.371 38.946 118.403 39.0986 118.467 39.2217C118.535 39.3447 118.633 39.4541 118.761 39.5498C118.888 39.6455 119.043 39.7321 119.226 39.8096C119.408 39.887 119.615 39.9714 119.848 40.0625C120.158 40.181 120.436 40.304 120.682 40.4316C120.928 40.5547 121.137 40.696 121.311 40.8555C121.484 41.0104 121.616 41.1904 121.707 41.3955C121.803 41.6006 121.851 41.8444 121.851 42.127C121.851 42.4733 121.773 42.7741 121.618 43.0293C121.468 43.2845 121.265 43.4964 121.01 43.665C120.755 43.8337 120.461 43.959 120.128 44.041C119.795 44.123 119.447 44.1641 119.082 44.1641C118.362 44.1641 117.738 44.0251 117.209 43.7471ZM126.827 43.9316C126.563 44.0775 126.214 44.1504 125.781 44.1504C124.555 44.1504 123.942 43.4668 123.942 42.0996V37.957H122.739V37H123.942V35.291L125.063 34.9287V37H126.827V37.957H125.063V41.9014C125.063 42.3708 125.143 42.7057 125.303 42.9062C125.462 43.1068 125.727 43.207 126.096 43.207C126.378 43.207 126.622 43.1296 126.827 42.9746V43.9316ZM128.898 35.2227C128.698 35.2227 128.527 35.1543 128.386 35.0176C128.244 34.8809 128.174 34.7077 128.174 34.498C128.174 34.2884 128.244 34.1152 128.386 33.9785C128.527 33.8372 128.698 33.7666 128.898 33.7666C129.104 33.7666 129.277 33.8372 129.418 33.9785C129.564 34.1152 129.637 34.2884 129.637 34.498C129.637 34.6986 129.564 34.8695 129.418 35.0107C129.277 35.152 129.104 35.2227 128.898 35.2227ZM129.445 44H128.324V37H129.445V44ZM134.962 43.9316C134.698 44.0775 134.349 44.1504 133.916 44.1504C132.69 44.1504 132.077 43.4668 132.077 42.0996V37.957H130.874V37H132.077V35.291L133.198 34.9287V37H134.962V37.957H133.198V41.9014C133.198 42.3708 133.278 42.7057 133.438 42.9062C133.597 43.1068 133.861 43.207 134.23 43.207C134.513 43.207 134.757 43.1296 134.962 42.9746V43.9316ZM142.119 44H140.998V42.8926H140.971C140.506 43.7402 139.786 44.1641 138.811 44.1641C137.143 44.1641 136.309 43.1706 136.309 41.1836V37H137.423V41.0059C137.423 42.4824 137.988 43.2207 139.118 43.2207C139.665 43.2207 140.114 43.0202 140.465 42.6191C140.82 42.2135 140.998 41.6849 140.998 41.0332V37H142.119V44ZM147.636 43.9316C147.371 44.0775 147.023 44.1504 146.59 44.1504C145.364 44.1504 144.751 43.4668 144.751 42.0996V37.957H143.548V37H144.751V35.291L145.872 34.9287V37H147.636V37.957H145.872V41.9014C145.872 42.3708 145.952 42.7057 146.111 42.9062C146.271 43.1068 146.535 43.207 146.904 43.207C147.187 43.207 147.431 43.1296 147.636 42.9746V43.9316ZM149.707 35.2227C149.507 35.2227 149.336 35.1543 149.194 35.0176C149.053 34.8809 148.982 34.7077 148.982 34.498C148.982 34.2884 149.053 34.1152 149.194 33.9785C149.336 33.8372 149.507 33.7666 149.707 33.7666C149.912 33.7666 150.085 33.8372 150.227 33.9785C150.372 34.1152 150.445 34.2884 150.445 34.498C150.445 34.6986 150.372 34.8695 150.227 35.0107C150.085 35.152 149.912 35.2227 149.707 35.2227ZM150.254 44H149.133V37H150.254V44ZM155.449 44.1641C154.415 44.1641 153.588 43.8382 152.968 43.1865C152.353 42.5303 152.045 41.6621 152.045 40.582C152.045 39.4062 152.366 38.488 153.009 37.8271C153.651 37.1663 154.52 36.8359 155.613 36.8359C156.657 36.8359 157.47 37.1572 158.054 37.7998C158.642 38.4424 158.936 39.3333 158.936 40.4727C158.936 41.5892 158.619 42.4847 157.985 43.1592C157.356 43.8291 156.511 44.1641 155.449 44.1641ZM155.531 37.7793C154.811 37.7793 154.242 38.0254 153.822 38.5176C153.403 39.0052 153.193 39.6797 153.193 40.541C153.193 41.3704 153.405 42.0244 153.829 42.5029C154.253 42.9814 154.82 43.2207 155.531 43.2207C156.256 43.2207 156.812 42.986 157.199 42.5166C157.591 42.0472 157.787 41.3796 157.787 40.5137C157.787 39.6387 157.591 38.9642 157.199 38.4902C156.812 38.0163 156.256 37.7793 155.531 37.7793ZM166.537 44H165.416V40.0078C165.416 38.5221 164.874 37.7793 163.789 37.7793C163.229 37.7793 162.764 37.9912 162.395 38.415C162.03 38.8343 161.848 39.3652 161.848 40.0078V44H160.727V37H161.848V38.1621H161.875C162.404 37.278 163.169 36.8359 164.172 36.8359C164.938 36.8359 165.523 37.0843 165.929 37.5811C166.334 38.0732 166.537 38.7865 166.537 39.7207V44ZM180.236 44H178.965L177.926 41.252H173.77L172.792 44H171.514L175.273 34.1973H176.463L180.236 44ZM177.55 40.2197L176.012 36.043C175.962 35.9062 175.911 35.6875 175.861 35.3867H175.834C175.788 35.6647 175.736 35.8835 175.677 36.043L174.152 40.2197H177.55ZM184.994 34.6211C184.775 34.498 184.527 34.4365 184.249 34.4365C183.465 34.4365 183.073 34.931 183.073 35.9199V37H184.714V37.957H183.073V44H181.959V37.957H180.763V37H181.959V35.8652C181.959 35.1315 182.171 34.5527 182.595 34.1289C183.019 33.7005 183.547 33.4863 184.181 33.4863C184.522 33.4863 184.794 33.5273 184.994 33.6094V34.6211ZM189.383 34.6211C189.164 34.498 188.916 34.4365 188.638 34.4365C187.854 34.4365 187.462 34.931 187.462 35.9199V37H189.103V37.957H187.462V44H186.348V37.957H185.151V37H186.348V35.8652C186.348 35.1315 186.56 34.5527 186.983 34.1289C187.407 33.7005 187.936 33.4863 188.569 33.4863C188.911 33.4863 189.182 33.5273 189.383 33.6094V34.6211ZM190.887 35.2227C190.686 35.2227 190.515 35.1543 190.374 35.0176C190.233 34.8809 190.162 34.7077 190.162 34.498C190.162 34.2884 190.233 34.1152 190.374 33.9785C190.515 33.8372 190.686 33.7666 190.887 33.7666C191.092 33.7666 191.265 33.8372 191.406 33.9785C191.552 34.1152 191.625 34.2884 191.625 34.498C191.625 34.6986 191.552 34.8695 191.406 35.0107C191.265 35.152 191.092 35.2227 190.887 35.2227ZM191.434 44H190.312V37H191.434V44ZM194.824 44H193.703V33.6367H194.824V44ZM197.668 35.2227C197.467 35.2227 197.297 35.1543 197.155 35.0176C197.014 34.8809 196.943 34.7077 196.943 34.498C196.943 34.2884 197.014 34.1152 197.155 33.9785C197.297 33.8372 197.467 33.7666 197.668 33.7666C197.873 33.7666 198.046 33.8372 198.188 33.9785C198.333 34.1152 198.406 34.2884 198.406 34.498C198.406 34.6986 198.333 34.8695 198.188 35.0107C198.046 35.152 197.873 35.2227 197.668 35.2227ZM198.215 44H197.094V37H198.215V44ZM205.495 44H204.374V42.9062H204.347C203.859 43.7448 203.141 44.1641 202.193 44.1641C201.496 44.1641 200.949 43.9795 200.553 43.6104C200.161 43.2412 199.965 42.7513 199.965 42.1406C199.965 40.8327 200.735 40.0716 202.275 39.8574L204.374 39.5635C204.374 38.374 203.893 37.7793 202.932 37.7793C202.089 37.7793 201.327 38.0664 200.648 38.6406V37.4922C201.337 37.0547 202.13 36.8359 203.027 36.8359C204.673 36.8359 205.495 37.7064 205.495 39.4473V44ZM204.374 40.459L202.686 40.6914C202.166 40.7643 201.774 40.8942 201.51 41.0811C201.245 41.2633 201.113 41.5892 201.113 42.0586C201.113 42.4004 201.234 42.6807 201.476 42.8994C201.722 43.1136 202.048 43.2207 202.453 43.2207C203.009 43.2207 203.467 43.027 203.827 42.6396C204.192 42.2477 204.374 41.7533 204.374 41.1562V40.459ZM210.854 43.9316C210.59 44.0775 210.242 44.1504 209.809 44.1504C208.583 44.1504 207.97 43.4668 207.97 42.0996V37.957H206.767V37H207.97V35.291L209.091 34.9287V37H210.854V37.957H209.091V41.9014C209.091 42.3708 209.171 42.7057 209.33 42.9062C209.49 43.1068 209.754 43.207 210.123 43.207C210.406 43.207 210.649 43.1296 210.854 42.9746V43.9316ZM217.978 40.7803H213.035C213.053 41.5596 213.263 42.1611 213.664 42.585C214.065 43.0088 214.617 43.2207 215.318 43.2207C216.107 43.2207 216.831 42.9609 217.492 42.4414V43.4941C216.877 43.9408 216.063 44.1641 215.052 44.1641C214.063 44.1641 213.286 43.8473 212.721 43.2139C212.156 42.5758 211.873 41.6803 211.873 40.5273C211.873 39.4382 212.181 38.5518 212.796 37.8682C213.416 37.18 214.184 36.8359 215.1 36.8359C216.016 36.8359 216.724 37.1322 217.226 37.7246C217.727 38.3171 217.978 39.1396 217.978 40.1924V40.7803ZM216.829 39.8301C216.825 39.1829 216.667 38.6794 216.357 38.3193C216.052 37.9593 215.626 37.7793 215.079 37.7793C214.55 37.7793 214.102 37.9684 213.732 38.3467C213.363 38.7249 213.135 39.2194 213.049 39.8301H216.829ZM225.654 44H224.533V42.8105H224.506C223.986 43.7129 223.184 44.1641 222.1 44.1641C221.22 44.1641 220.516 43.8519 219.987 43.2275C219.463 42.5986 219.201 41.7441 219.201 40.6641C219.201 39.5065 219.493 38.5791 220.076 37.8818C220.66 37.1846 221.437 36.8359 222.407 36.8359C223.369 36.8359 224.068 37.2142 224.506 37.9707H224.533V33.6367H225.654V44ZM224.533 40.835V39.8027C224.533 39.2376 224.346 38.7591 223.973 38.3672C223.599 37.9753 223.125 37.7793 222.551 37.7793C221.867 37.7793 221.329 38.0299 220.938 38.5312C220.546 39.0326 220.35 39.7253 220.35 40.6094C220.35 41.416 220.536 42.054 220.91 42.5234C221.288 42.9883 221.794 43.2207 222.428 43.2207C223.052 43.2207 223.558 42.9951 223.945 42.5439C224.337 42.0928 224.533 41.5231 224.533 40.835ZM235.013 43.9316C234.748 44.0775 234.4 44.1504 233.967 44.1504C232.741 44.1504 232.128 43.4668 232.128 42.0996V37.957H230.925V37H232.128V35.291L233.249 34.9287V37H235.013V37.957H233.249V41.9014C233.249 42.3708 233.329 42.7057 233.488 42.9062C233.648 43.1068 233.912 43.207 234.281 43.207C234.564 43.207 234.808 43.1296 235.013 42.9746V43.9316ZM239.436 44.1641C238.401 44.1641 237.574 43.8382 236.954 43.1865C236.339 42.5303 236.031 41.6621 236.031 40.582C236.031 39.4062 236.353 38.488 236.995 37.8271C237.638 37.1663 238.506 36.8359 239.6 36.8359C240.643 36.8359 241.457 37.1572 242.04 37.7998C242.628 38.4424 242.922 39.3333 242.922 40.4727C242.922 41.5892 242.605 42.4847 241.972 43.1592C241.343 43.8291 240.497 44.1641 239.436 44.1641ZM239.518 37.7793C238.798 37.7793 238.228 38.0254 237.809 38.5176C237.389 39.0052 237.18 39.6797 237.18 40.541C237.18 41.3704 237.392 42.0244 237.815 42.5029C238.239 42.9814 238.807 43.2207 239.518 43.2207C240.242 43.2207 240.798 42.986 241.186 42.5166C241.577 42.0472 241.773 41.3796 241.773 40.5137C241.773 39.6387 241.577 38.9642 241.186 38.4902C240.798 38.0163 240.242 37.7793 239.518 37.7793ZM256.293 44H255.021L253.982 41.252H249.826L248.849 44H247.57L251.33 34.1973H252.52L256.293 44ZM253.606 40.2197L252.068 36.043C252.018 35.9062 251.968 35.6875 251.918 35.3867H251.891C251.845 35.6647 251.793 35.8835 251.733 36.043L250.209 40.2197H253.606ZM263.402 44H262.281V40.0078C262.281 38.5221 261.739 37.7793 260.654 37.7793C260.094 37.7793 259.629 37.9912 259.26 38.415C258.895 38.8343 258.713 39.3652 258.713 40.0078V44H257.592V37H258.713V38.1621H258.74C259.269 37.278 260.035 36.8359 261.037 36.8359C261.803 36.8359 262.388 37.0843 262.794 37.5811C263.2 38.0732 263.402 38.7865 263.402 39.7207V44ZM271.332 44H270.211V40.0078C270.211 38.5221 269.669 37.7793 268.584 37.7793C268.023 37.7793 267.559 37.9912 267.189 38.415C266.825 38.8343 266.643 39.3652 266.643 40.0078V44H265.521V37H266.643V38.1621H266.67C267.199 37.278 267.964 36.8359 268.967 36.8359C269.732 36.8359 270.318 37.0843 270.724 37.5811C271.129 38.0732 271.332 38.7865 271.332 39.7207V44ZM278.462 44H277.341V42.9062H277.313C276.826 43.7448 276.108 44.1641 275.16 44.1641C274.463 44.1641 273.916 43.9795 273.52 43.6104C273.128 43.2412 272.932 42.7513 272.932 42.1406C272.932 40.8327 273.702 40.0716 275.242 39.8574L277.341 39.5635C277.341 38.374 276.86 37.7793 275.898 37.7793C275.055 37.7793 274.294 38.0664 273.615 38.6406V37.4922C274.303 37.0547 275.096 36.8359 275.994 36.8359C277.639 36.8359 278.462 37.7064 278.462 39.4473V44ZM277.341 40.459L275.652 40.6914C275.133 40.7643 274.741 40.8942 274.477 41.0811C274.212 41.2633 274.08 41.5892 274.08 42.0586C274.08 42.4004 274.201 42.6807 274.442 42.8994C274.688 43.1136 275.014 43.2207 275.42 43.2207C275.976 43.2207 276.434 43.027 276.794 42.6396C277.159 42.2477 277.341 41.7533 277.341 41.1562V40.459ZM291.737 40.0352C291.737 42.7878 290.495 44.1641 288.012 44.1641C285.633 44.1641 284.443 42.8402 284.443 40.1924V34.1973H285.592V40.1172C285.592 42.127 286.439 43.1318 288.135 43.1318C289.771 43.1318 290.589 42.1611 290.589 40.2197V34.1973H291.737V40.0352ZM299.852 44H298.73V40.0078C298.73 38.5221 298.188 37.7793 297.104 37.7793C296.543 37.7793 296.078 37.9912 295.709 38.415C295.344 38.8343 295.162 39.3652 295.162 40.0078V44H294.041V37H295.162V38.1621H295.189C295.718 37.278 296.484 36.8359 297.486 36.8359C298.252 36.8359 298.838 37.0843 299.243 37.5811C299.649 38.0732 299.852 38.7865 299.852 39.7207V44ZM302.545 35.2227C302.344 35.2227 302.174 35.1543 302.032 35.0176C301.891 34.8809 301.82 34.7077 301.82 34.498C301.82 34.2884 301.891 34.1152 302.032 33.9785C302.174 33.8372 302.344 33.7666 302.545 33.7666C302.75 33.7666 302.923 33.8372 303.064 33.9785C303.21 34.1152 303.283 34.2884 303.283 34.498C303.283 34.6986 303.21 34.8695 303.064 35.0107C302.923 35.152 302.75 35.2227 302.545 35.2227ZM303.092 44H301.971V37H303.092V44ZM310.864 37L308.075 44H306.975L304.322 37H305.553L307.33 42.0859C307.462 42.4596 307.544 42.7855 307.576 43.0635H307.604C307.649 42.7126 307.722 42.3958 307.822 42.1133L309.682 37H310.864ZM317.7 40.7803H312.758C312.776 41.5596 312.986 42.1611 313.387 42.585C313.788 43.0088 314.339 43.2207 315.041 43.2207C315.829 43.2207 316.554 42.9609 317.215 42.4414V43.4941C316.6 43.9408 315.786 44.1641 314.774 44.1641C313.785 44.1641 313.008 43.8473 312.443 43.2139C311.878 42.5758 311.596 41.6803 311.596 40.5273C311.596 39.4382 311.903 38.5518 312.519 37.8682C313.138 37.18 313.906 36.8359 314.822 36.8359C315.738 36.8359 316.447 37.1322 316.948 37.7246C317.45 38.3171 317.7 39.1396 317.7 40.1924V40.7803ZM316.552 39.8301C316.547 39.1829 316.39 38.6794 316.08 38.3193C315.775 37.9593 315.349 37.7793 314.802 37.7793C314.273 37.7793 313.824 37.9684 313.455 38.3467C313.086 38.7249 312.858 39.2194 312.771 39.8301H316.552ZM323.053 38.1348C322.857 37.9844 322.574 37.9092 322.205 37.9092C321.727 37.9092 321.326 38.1348 321.002 38.5859C320.683 39.0371 320.523 39.6523 320.523 40.4316V44H319.402V37H320.523V38.4424H320.551C320.71 37.9502 320.954 37.5674 321.282 37.2939C321.61 37.016 321.977 36.877 322.383 36.877C322.674 36.877 322.898 36.9089 323.053 36.9727V38.1348ZM323.846 43.7471V42.5439C324.456 42.9951 325.129 43.2207 325.862 43.2207C326.847 43.2207 327.339 42.8926 327.339 42.2363C327.339 42.0495 327.296 41.8923 327.209 41.7646C327.127 41.6325 327.013 41.5163 326.867 41.416C326.726 41.3158 326.557 41.2269 326.361 41.1494C326.17 41.0674 325.963 40.9831 325.739 40.8965C325.429 40.7734 325.156 40.6504 324.919 40.5273C324.687 40.3997 324.491 40.2585 324.331 40.1035C324.176 39.944 324.058 39.764 323.976 39.5635C323.898 39.363 323.859 39.1283 323.859 38.8594C323.859 38.5312 323.935 38.2419 324.085 37.9912C324.235 37.736 324.436 37.5241 324.687 37.3555C324.937 37.1823 325.222 37.0524 325.541 36.9658C325.865 36.8792 326.197 36.8359 326.539 36.8359C327.145 36.8359 327.688 36.9408 328.166 37.1504V38.2852C327.651 37.9479 327.059 37.7793 326.389 37.7793C326.179 37.7793 325.99 37.8044 325.821 37.8545C325.653 37.9001 325.507 37.9661 325.384 38.0527C325.265 38.1393 325.172 38.2441 325.104 38.3672C325.04 38.4857 325.008 38.6178 325.008 38.7637C325.008 38.946 325.04 39.0986 325.104 39.2217C325.172 39.3447 325.27 39.4541 325.397 39.5498C325.525 39.6455 325.68 39.7321 325.862 39.8096C326.045 39.887 326.252 39.9714 326.484 40.0625C326.794 40.181 327.072 40.304 327.318 40.4316C327.564 40.5547 327.774 40.696 327.947 40.8555C328.12 41.0104 328.253 41.1904 328.344 41.3955C328.439 41.6006 328.487 41.8444 328.487 42.127C328.487 42.4733 328.41 42.7741 328.255 43.0293C328.104 43.2845 327.902 43.4964 327.646 43.665C327.391 43.8337 327.097 43.959 326.765 44.041C326.432 44.123 326.083 44.1641 325.719 44.1641C324.999 44.1641 324.374 44.0251 323.846 43.7471ZM330.791 35.2227C330.59 35.2227 330.42 35.1543 330.278 35.0176C330.137 34.8809 330.066 34.7077 330.066 34.498C330.066 34.2884 330.137 34.1152 330.278 33.9785C330.42 33.8372 330.59 33.7666 330.791 33.7666C330.996 33.7666 331.169 33.8372 331.311 33.9785C331.456 34.1152 331.529 34.2884 331.529 34.498C331.529 34.6986 331.456 34.8695 331.311 35.0107C331.169 35.152 330.996 35.2227 330.791 35.2227ZM331.338 44H330.217V37H331.338V44ZM336.854 43.9316C336.59 44.0775 336.242 44.1504 335.809 44.1504C334.583 44.1504 333.97 43.4668 333.97 42.0996V37.957H332.767V37H333.97V35.291L335.091 34.9287V37H336.854V37.957H335.091V41.9014C335.091 42.3708 335.171 42.7057 335.33 42.9062C335.49 43.1068 335.754 43.207 336.123 43.207C336.406 43.207 336.649 43.1296 336.854 42.9746V43.9316ZM343.923 37L340.703 45.1211C340.129 46.5703 339.322 47.2949 338.283 47.2949C337.992 47.2949 337.748 47.2653 337.552 47.2061V46.2012C337.793 46.2832 338.014 46.3242 338.215 46.3242C338.78 46.3242 339.204 45.987 339.486 45.3125L340.047 43.9863L337.312 37H338.557L340.45 42.3867C340.473 42.4551 340.521 42.6328 340.594 42.9199H340.635C340.658 42.8105 340.703 42.6374 340.771 42.4004L342.761 37H343.923ZM8.87305 63H7.60156L6.5625 60.252H2.40625L1.42871 63H0.150391L3.91016 53.1973H5.09961L8.87305 63ZM6.18652 59.2197L4.64844 55.043C4.59831 54.9062 4.54818 54.6875 4.49805 54.3867H4.4707C4.42513 54.6647 4.37272 54.8835 4.31348 55.043L2.78906 59.2197H6.18652ZM14.9434 62.6787C14.4056 63.0023 13.7676 63.1641 13.0293 63.1641C12.0312 63.1641 11.2246 62.8405 10.6094 62.1934C9.9987 61.5417 9.69336 60.6986 9.69336 59.6641C9.69336 58.5111 10.0238 57.5859 10.6846 56.8887C11.3454 56.1868 12.2272 55.8359 13.3301 55.8359C13.9453 55.8359 14.4876 55.9499 14.957 56.1777V57.3262C14.4375 56.9616 13.8815 56.7793 13.2891 56.7793C12.5736 56.7793 11.9857 57.0368 11.5254 57.5518C11.0697 58.0622 10.8418 58.7344 10.8418 59.5684C10.8418 60.3887 11.056 61.0358 11.4844 61.5098C11.9173 61.9837 12.4961 62.2207 13.2207 62.2207C13.8314 62.2207 14.4056 62.0179 14.9434 61.6123V62.6787ZM21.4102 62.6787C20.8724 63.0023 20.2344 63.1641 19.4961 63.1641C18.498 63.1641 17.6914 62.8405 17.0762 62.1934C16.4655 61.5417 16.1602 60.6986 16.1602 59.6641C16.1602 58.5111 16.4906 57.5859 17.1514 56.8887C17.8122 56.1868 18.694 55.8359 19.7969 55.8359C20.4121 55.8359 20.9544 55.9499 21.4238 56.1777V57.3262C20.9043 56.9616 20.3483 56.7793 19.7559 56.7793C19.0404 56.7793 18.4525 57.0368 17.9922 57.5518C17.5365 58.0622 17.3086 58.7344 17.3086 59.5684C17.3086 60.3887 17.5228 61.0358 17.9512 61.5098C18.3841 61.9837 18.9629 62.2207 19.6875 62.2207C20.2982 62.2207 20.8724 62.0179 21.4102 61.6123V62.6787ZM26.7559 57.1348C26.5599 56.9844 26.2773 56.9092 25.9082 56.9092C25.4297 56.9092 25.0286 57.1348 24.7051 57.5859C24.3861 58.0371 24.2266 58.6523 24.2266 59.4316V63H23.1055V56H24.2266V57.4424H24.2539C24.4134 56.9502 24.6572 56.5674 24.9854 56.2939C25.3135 56.016 25.6803 55.877 26.0859 55.877C26.3776 55.877 26.6009 55.9089 26.7559 55.9727V57.1348ZM33.5986 59.7803H28.6562C28.6745 60.5596 28.8841 61.1611 29.2852 61.585C29.6862 62.0088 30.2376 62.2207 30.9395 62.2207C31.7279 62.2207 32.4525 61.9609 33.1133 61.4414V62.4941C32.498 62.9408 31.6846 63.1641 30.6729 63.1641C29.6839 63.1641 28.9069 62.8473 28.3418 62.2139C27.7767 61.5758 27.4941 60.6803 27.4941 59.5273C27.4941 58.4382 27.8018 57.5518 28.417 56.8682C29.0368 56.18 29.8047 55.8359 30.7207 55.8359C31.6367 55.8359 32.3454 56.1322 32.8467 56.7246C33.348 57.3171 33.5986 58.1396 33.5986 59.1924V59.7803ZM32.4502 58.8301C32.4456 58.1829 32.2884 57.6794 31.9785 57.3193C31.6732 56.9593 31.2471 56.7793 30.7002 56.7793C30.1715 56.7793 29.7227 56.9684 29.3535 57.3467C28.9844 57.7249 28.7565 58.2194 28.6699 58.8301H32.4502ZM41.2754 63H40.1543V61.8105H40.127C39.6074 62.7129 38.8053 63.1641 37.7207 63.1641C36.8411 63.1641 36.137 62.8519 35.6084 62.2275C35.0843 61.5986 34.8223 60.7441 34.8223 59.6641C34.8223 58.5065 35.1139 57.5791 35.6973 56.8818C36.2806 56.1846 37.0576 55.8359 38.0283 55.8359C38.9899 55.8359 39.6895 56.2142 40.127 56.9707H40.1543V52.6367H41.2754V63ZM40.1543 59.835V58.8027C40.1543 58.2376 39.9674 57.7591 39.5938 57.3672C39.2201 56.9753 38.7461 56.7793 38.1719 56.7793C37.4883 56.7793 36.9505 57.0299 36.5586 57.5312C36.1667 58.0326 35.9707 58.7253 35.9707 59.6094C35.9707 60.416 36.1576 61.054 36.5312 61.5234C36.9095 61.9883 37.4154 62.2207 38.0488 62.2207C38.6732 62.2207 39.179 61.9951 39.5664 61.5439C39.9583 61.0928 40.1543 60.5231 40.1543 59.835ZM44.1191 54.2227C43.9186 54.2227 43.7477 54.1543 43.6064 54.0176C43.4652 53.8809 43.3945 53.7077 43.3945 53.498C43.3945 53.2884 43.4652 53.1152 43.6064 52.9785C43.7477 52.8372 43.9186 52.7666 44.1191 52.7666C44.3242 52.7666 44.4974 52.8372 44.6387 52.9785C44.7845 53.1152 44.8574 53.2884 44.8574 53.498C44.8574 53.6986 44.7845 53.8695 44.6387 54.0107C44.4974 54.152 44.3242 54.2227 44.1191 54.2227ZM44.666 63H43.5449V56H44.666V63ZM50.1826 62.9316C49.9183 63.0775 49.5697 63.1504 49.1367 63.1504C47.9108 63.1504 47.2979 62.4668 47.2979 61.0996V56.957H46.0947V56H47.2979V54.291L48.4189 53.9287V56H50.1826V56.957H48.4189V60.9014C48.4189 61.3708 48.4987 61.7057 48.6582 61.9062C48.8177 62.1068 49.082 62.207 49.4512 62.207C49.7337 62.207 49.9775 62.1296 50.1826 61.9746V62.9316ZM57.3057 59.7803H52.3633C52.3815 60.5596 52.5911 61.1611 52.9922 61.585C53.3932 62.0088 53.9447 62.2207 54.6465 62.2207C55.4349 62.2207 56.1595 61.9609 56.8203 61.4414V62.4941C56.2051 62.9408 55.3916 63.1641 54.3799 63.1641C53.391 63.1641 52.6139 62.8473 52.0488 62.2139C51.4837 61.5758 51.2012 60.6803 51.2012 59.5273C51.2012 58.4382 51.5088 57.5518 52.124 56.8682C52.7438 56.18 53.5117 55.8359 54.4277 55.8359C55.3438 55.8359 56.0524 56.1322 56.5537 56.7246C57.055 57.3171 57.3057 58.1396 57.3057 59.1924V59.7803ZM56.1572 58.8301C56.1527 58.1829 55.9954 57.6794 55.6855 57.3193C55.3802 56.9593 54.9541 56.7793 54.4072 56.7793C53.8786 56.7793 53.4297 56.9684 53.0605 57.3467C52.6914 57.7249 52.4635 58.2194 52.377 58.8301H56.1572ZM64.9824 63H63.8613V61.8105H63.834C63.3145 62.7129 62.5124 63.1641 61.4277 63.1641C60.5482 63.1641 59.8441 62.8519 59.3154 62.2275C58.7913 61.5986 58.5293 60.7441 58.5293 59.6641C58.5293 58.5065 58.821 57.5791 59.4043 56.8818C59.9876 56.1846 60.7646 55.8359 61.7354 55.8359C62.6969 55.8359 63.3965 56.2142 63.834 56.9707H63.8613V52.6367H64.9824V63ZM63.8613 59.835V58.8027C63.8613 58.2376 63.6745 57.7591 63.3008 57.3672C62.9271 56.9753 62.4531 56.7793 61.8789 56.7793C61.1953 56.7793 60.6576 57.0299 60.2656 57.5312C59.8737 58.0326 59.6777 58.7253 59.6777 59.6094C59.6777 60.416 59.8646 61.054 60.2383 61.5234C60.6165 61.9883 61.1224 62.2207 61.7559 62.2207C62.3802 62.2207 62.8861 61.9951 63.2734 61.5439C63.6654 61.0928 63.8613 60.5231 63.8613 59.835ZM72.2422 61.9883H72.2148V63H71.0938V52.6367H72.2148V57.2305H72.2422C72.7936 56.3008 73.6003 55.8359 74.6621 55.8359C75.5599 55.8359 76.2617 56.1504 76.7676 56.7793C77.278 57.4036 77.5332 58.2422 77.5332 59.2949C77.5332 60.4661 77.2484 61.4049 76.6787 62.1113C76.109 62.8132 75.3298 63.1641 74.3408 63.1641C73.4157 63.1641 72.7161 62.7721 72.2422 61.9883ZM72.2148 59.165V60.1426C72.2148 60.7214 72.4017 61.2135 72.7754 61.6191C73.1536 62.0202 73.6322 62.2207 74.2109 62.2207C74.89 62.2207 75.4209 61.9609 75.8037 61.4414C76.1911 60.9219 76.3848 60.1995 76.3848 59.2744C76.3848 58.4951 76.2048 57.8844 75.8447 57.4424C75.4847 57.0003 74.9971 56.7793 74.3818 56.7793C73.7301 56.7793 73.2061 57.0072 72.8096 57.4629C72.4131 57.9141 72.2148 58.4814 72.2148 59.165ZM84.8955 56L81.6758 64.1211C81.1016 65.5703 80.2949 66.2949 79.2559 66.2949C78.9642 66.2949 78.7204 66.2653 78.5244 66.2061V65.2012C78.766 65.2832 78.987 65.3242 79.1875 65.3242C79.7526 65.3242 80.1764 64.987 80.459 64.3125L81.0195 62.9863L78.2852 56H79.5293L81.4229 61.3867C81.4456 61.4551 81.4935 61.6328 81.5664 61.9199H81.6074C81.6302 61.8105 81.6758 61.6374 81.7441 61.4004L83.7334 56H84.8955ZM98 63H96.5918L91.5469 55.1865C91.4193 54.9906 91.3145 54.7855 91.2324 54.5713H91.1914C91.2279 54.7809 91.2461 55.2298 91.2461 55.918V63H90.0977V53.1973H91.5879L96.4961 60.8877C96.7012 61.2067 96.8333 61.4255 96.8926 61.5439H96.9199C96.8743 61.2614 96.8516 60.7806 96.8516 60.1016V53.1973H98V63ZM100.57 63V53.1973H103.359C104.207 53.1973 104.879 53.4046 105.376 53.8193C105.873 54.234 106.121 54.7741 106.121 55.4395C106.121 55.9954 105.971 56.4785 105.67 56.8887C105.369 57.2988 104.954 57.5905 104.426 57.7637V57.791C105.087 57.8685 105.615 58.1191 106.012 58.543C106.408 58.9622 106.606 59.5091 106.606 60.1836C106.606 61.0221 106.306 61.7012 105.704 62.2207C105.103 62.7402 104.344 63 103.428 63H100.57ZM101.719 54.2363V57.4014H102.895C103.523 57.4014 104.018 57.251 104.378 56.9502C104.738 56.6449 104.918 56.2165 104.918 55.665C104.918 54.7126 104.291 54.2363 103.038 54.2363H101.719ZM101.719 58.4336V61.9609H103.277C103.952 61.9609 104.474 61.8014 104.843 61.4824C105.216 61.1634 105.403 60.7259 105.403 60.1699C105.403 59.0124 104.615 58.4336 103.038 58.4336H101.719ZM116.184 63H114.912L113.873 60.252H109.717L108.739 63H107.461L111.221 53.1973H112.41L116.184 63ZM113.497 59.2197L111.959 55.043C111.909 54.9062 111.859 54.6875 111.809 54.3867H111.781C111.736 54.6647 111.683 54.8835 111.624 55.043L110.1 59.2197H113.497ZM130.067 63.1572C129.808 63.1572 129.577 63.1208 129.377 63.0479C129.181 62.9795 128.999 62.8815 128.83 62.7539C128.661 62.6217 128.497 62.4622 128.338 62.2754C128.183 62.0885 128.019 61.8766 127.846 61.6396C127.663 61.8356 127.451 62.0247 127.21 62.207C126.973 62.3893 126.709 62.5511 126.417 62.6924C126.125 62.8337 125.806 62.9453 125.46 63.0273C125.114 63.1139 124.738 63.1572 124.332 63.1572C123.84 63.1572 123.389 63.0957 122.979 62.9727C122.568 62.8496 122.217 62.6696 121.926 62.4326C121.634 62.1911 121.406 61.8949 121.242 61.5439C121.083 61.193 121.003 60.7897 121.003 60.334C121.003 59.6367 121.201 59.042 121.598 58.5498C121.994 58.0531 122.555 57.6475 123.279 57.333C123.143 57.2327 123.006 57.1165 122.869 56.9844C122.732 56.8477 122.609 56.695 122.5 56.5264C122.395 56.3532 122.309 56.1641 122.24 55.959C122.176 55.7493 122.145 55.5215 122.145 55.2754C122.145 54.9154 122.208 54.5964 122.336 54.3184C122.468 54.0404 122.648 53.8057 122.876 53.6143C123.104 53.4229 123.373 53.2793 123.683 53.1836C123.993 53.0833 124.327 53.0332 124.688 53.0332C125.043 53.0332 125.367 53.0833 125.658 53.1836C125.954 53.2793 126.207 53.4183 126.417 53.6006C126.631 53.7829 126.798 54.0016 126.916 54.2568C127.035 54.512 127.094 54.7969 127.094 55.1113C127.094 55.6582 126.937 56.1139 126.622 56.4785C126.312 56.8385 125.845 57.1462 125.221 57.4014C125.535 57.5244 125.82 57.6748 126.075 57.8525C126.33 58.0303 126.565 58.2285 126.779 58.4473C126.998 58.666 127.201 58.9007 127.388 59.1514C127.575 59.402 127.759 59.6618 127.941 59.9307C128.311 59.4157 128.589 58.8483 128.775 58.2285C128.962 57.6087 129.056 56.9593 129.056 56.2803C129.056 56.1071 129.044 55.9453 129.021 55.7949C129.003 55.64 128.976 55.4873 128.939 55.3369H130.026C130.063 55.4873 130.083 55.6309 130.088 55.7676C130.097 55.8997 130.106 56.0592 130.115 56.2461C130.115 56.6608 130.072 57.0778 129.985 57.4971C129.899 57.9163 129.783 58.3242 129.637 58.7207C129.491 59.1126 129.32 59.4863 129.124 59.8418C128.933 60.1973 128.73 60.5231 128.516 60.8193C128.675 61.0381 128.821 61.2295 128.953 61.3936C129.085 61.5531 129.217 61.6875 129.35 61.7969C129.486 61.9062 129.625 61.9883 129.767 62.043C129.912 62.0931 130.076 62.1182 130.259 62.1182C130.396 62.1182 130.535 62.0999 130.676 62.0635C130.817 62.027 130.963 61.9814 131.113 61.9268V62.9658C130.949 63.0296 130.776 63.0775 130.594 63.1094C130.416 63.1413 130.241 63.1572 130.067 63.1572ZM124.332 62.1865C124.678 62.1865 124.997 62.1501 125.289 62.0771C125.581 61.9997 125.85 61.8994 126.096 61.7764C126.342 61.6488 126.565 61.5029 126.766 61.3389C126.966 61.1702 127.148 60.9948 127.312 60.8125C127.035 60.3796 126.777 60.0104 126.54 59.7051C126.308 59.3952 126.071 59.1286 125.829 58.9053C125.592 58.682 125.337 58.4906 125.063 58.3311C124.795 58.1715 124.482 58.0234 124.127 57.8867C123.84 58.0007 123.576 58.1283 123.334 58.2695C123.092 58.4062 122.883 58.5703 122.705 58.7617C122.532 58.9486 122.395 59.1673 122.295 59.418C122.195 59.6686 122.145 59.9626 122.145 60.2998C122.145 60.6097 122.201 60.8831 122.315 61.1201C122.429 61.3571 122.584 61.5553 122.78 61.7148C122.981 61.8698 123.213 61.9883 123.478 62.0703C123.742 62.1478 124.027 62.1865 124.332 62.1865ZM126.041 55.207C126.041 54.9792 125.998 54.7855 125.911 54.626C125.829 54.4665 125.722 54.3343 125.59 54.2295C125.462 54.1247 125.319 54.0495 125.159 54.0039C125 53.9538 124.842 53.9287 124.688 53.9287C124.241 53.9287 123.883 54.0495 123.614 54.291C123.35 54.5326 123.215 54.8607 123.211 55.2754C123.211 55.4622 123.238 55.6377 123.293 55.8018C123.352 55.9658 123.432 56.1185 123.532 56.2598C123.637 56.401 123.758 56.5264 123.895 56.6357C124.031 56.7451 124.177 56.8385 124.332 56.916C124.906 56.7155 125.335 56.4831 125.617 56.2188C125.9 55.9499 126.041 55.6126 126.041 55.207ZM144.43 63H143.021L137.977 55.1865C137.849 54.9906 137.744 54.7855 137.662 54.5713H137.621C137.658 54.7809 137.676 55.2298 137.676 55.918V63H136.527V53.1973H138.018L142.926 60.8877C143.131 61.2067 143.263 61.4255 143.322 61.5439H143.35C143.304 61.2614 143.281 60.7806 143.281 60.1016V53.1973H144.43V63ZM154.588 63H153.316L152.277 60.252H148.121L147.144 63H145.865L149.625 53.1973H150.814L154.588 63ZM151.901 59.2197L150.363 55.043C150.313 54.9062 150.263 54.6875 150.213 54.3867H150.186C150.14 54.6647 150.088 54.8835 150.028 55.043L148.504 59.2197H151.901ZM163.625 63H162.354L161.314 60.252H157.158L156.181 63H154.902L158.662 53.1973H159.852L163.625 63ZM160.938 59.2197L159.4 55.043C159.35 54.9062 159.3 54.6875 159.25 54.3867H159.223C159.177 54.6647 159.125 54.8835 159.065 55.043L157.541 59.2197H160.938ZM171.473 62.5898C170.748 62.9727 169.846 63.1641 168.766 63.1641C167.371 63.1641 166.255 62.7152 165.416 61.8174C164.577 60.9196 164.158 59.7415 164.158 58.2832C164.158 56.7155 164.63 55.4486 165.573 54.4824C166.517 53.5163 167.713 53.0332 169.162 53.0332C170.092 53.0332 170.862 53.1676 171.473 53.4365V54.6602C170.771 54.2682 169.996 54.0723 169.148 54.0723C168.023 54.0723 167.109 54.4482 166.407 55.2002C165.71 55.9521 165.361 56.957 165.361 58.2148C165.361 59.4089 165.687 60.3613 166.339 61.0723C166.995 61.7786 167.854 62.1318 168.916 62.1318C169.9 62.1318 170.753 61.9131 171.473 61.4756V62.5898ZM185.979 56L183.88 63H182.718L181.275 57.9893C181.221 57.7979 181.184 57.5814 181.166 57.3398H181.139C181.125 57.5039 181.077 57.7158 180.995 57.9756L179.43 63H178.309L176.189 56H177.365L178.814 61.2637C178.86 61.4232 178.892 61.6328 178.91 61.8926H178.965C178.979 61.6921 179.02 61.4779 179.088 61.25L180.701 56H181.727L183.176 61.2773C183.221 61.446 183.256 61.6556 183.278 61.9062H183.333C183.342 61.7285 183.381 61.5189 183.449 61.2773L184.871 56H185.979ZM187.852 54.2227C187.651 54.2227 187.48 54.1543 187.339 54.0176C187.198 53.8809 187.127 53.7077 187.127 53.498C187.127 53.2884 187.198 53.1152 187.339 52.9785C187.48 52.8372 187.651 52.7666 187.852 52.7666C188.057 52.7666 188.23 52.8372 188.371 52.9785C188.517 53.1152 188.59 53.2884 188.59 53.498C188.59 53.6986 188.517 53.8695 188.371 54.0107C188.23 54.152 188.057 54.2227 187.852 54.2227ZM188.398 63H187.277V56H188.398V63ZM193.915 62.9316C193.651 63.0775 193.302 63.1504 192.869 63.1504C191.643 63.1504 191.03 62.4668 191.03 61.0996V56.957H189.827V56H191.03V54.291L192.151 53.9287V56H193.915V56.957H192.151V60.9014C192.151 61.3708 192.231 61.7057 192.391 61.9062C192.55 62.1068 192.814 62.207 193.184 62.207C193.466 62.207 193.71 62.1296 193.915 61.9746V62.9316ZM201.223 63H200.102V58.9668C200.102 57.5085 199.559 56.7793 198.475 56.7793C197.928 56.7793 197.467 56.9912 197.094 57.415C196.72 57.8343 196.533 58.3743 196.533 59.0352V63H195.412V52.6367H196.533V57.1621H196.561C197.098 56.278 197.864 55.8359 198.857 55.8359C200.434 55.8359 201.223 56.7861 201.223 58.6865V63ZM214.662 62.3301C213.678 62.8861 212.584 63.1641 211.381 63.1641C209.982 63.1641 208.849 62.7129 207.983 61.8105C207.122 60.9082 206.691 59.7142 206.691 58.2285C206.691 56.7109 207.17 55.4668 208.127 54.4961C209.089 53.5208 210.305 53.0332 211.777 53.0332C212.844 53.0332 213.739 53.2064 214.464 53.5527V54.8242C213.671 54.3229 212.732 54.0723 211.647 54.0723C210.549 54.0723 209.649 54.4505 208.947 55.207C208.245 55.9635 207.895 56.9434 207.895 58.1465C207.895 59.3861 208.22 60.3613 208.872 61.0723C209.524 61.7786 210.408 62.1318 211.524 62.1318C212.29 62.1318 212.953 61.9792 213.514 61.6738V58.9258H211.367V57.8867H214.662V62.3301ZM220.445 57.1348C220.249 56.9844 219.967 56.9092 219.598 56.9092C219.119 56.9092 218.718 57.1348 218.395 57.5859C218.076 58.0371 217.916 58.6523 217.916 59.4316V63H216.795V56H217.916V57.4424H217.943C218.103 56.9502 218.347 56.5674 218.675 56.2939C219.003 56.016 219.37 55.877 219.775 55.877C220.067 55.877 220.29 55.9089 220.445 55.9727V57.1348ZM226.673 63H225.552V61.9062H225.524C225.037 62.7448 224.319 63.1641 223.371 63.1641C222.674 63.1641 222.127 62.9795 221.73 62.6104C221.339 62.2412 221.143 61.7513 221.143 61.1406C221.143 59.8327 221.913 59.0716 223.453 58.8574L225.552 58.5635C225.552 57.374 225.071 56.7793 224.109 56.7793C223.266 56.7793 222.505 57.0664 221.826 57.6406V56.4922C222.514 56.0547 223.307 55.8359 224.205 55.8359C225.85 55.8359 226.673 56.7064 226.673 58.4473V63ZM225.552 59.459L223.863 59.6914C223.344 59.7643 222.952 59.8942 222.688 60.0811C222.423 60.2633 222.291 60.5892 222.291 61.0586C222.291 61.4004 222.412 61.6807 222.653 61.8994C222.899 62.1136 223.225 62.2207 223.631 62.2207C224.187 62.2207 224.645 62.027 225.005 61.6396C225.369 61.2477 225.552 60.7533 225.552 60.1562V59.459ZM234.76 63H233.639V61.8105H233.611C233.092 62.7129 232.29 63.1641 231.205 63.1641C230.326 63.1641 229.621 62.8519 229.093 62.2275C228.569 61.5986 228.307 60.7441 228.307 59.6641C228.307 58.5065 228.598 57.5791 229.182 56.8818C229.765 56.1846 230.542 55.8359 231.513 55.8359C232.474 55.8359 233.174 56.2142 233.611 56.9707H233.639V52.6367H234.76V63ZM233.639 59.835V58.8027C233.639 58.2376 233.452 57.7591 233.078 57.3672C232.704 56.9753 232.23 56.7793 231.656 56.7793C230.973 56.7793 230.435 57.0299 230.043 57.5312C229.651 58.0326 229.455 58.7253 229.455 59.6094C229.455 60.416 229.642 61.054 230.016 61.5234C230.394 61.9883 230.9 62.2207 231.533 62.2207C232.158 62.2207 232.663 61.9951 233.051 61.5439C233.443 61.0928 233.639 60.5231 233.639 59.835ZM242.655 59.7803H237.713C237.731 60.5596 237.941 61.1611 238.342 61.585C238.743 62.0088 239.294 62.2207 239.996 62.2207C240.785 62.2207 241.509 61.9609 242.17 61.4414V62.4941C241.555 62.9408 240.741 63.1641 239.729 63.1641C238.741 63.1641 237.964 62.8473 237.398 62.2139C236.833 61.5758 236.551 60.6803 236.551 59.5273C236.551 58.4382 236.858 57.5518 237.474 56.8682C238.093 56.18 238.861 55.8359 239.777 55.8359C240.693 55.8359 241.402 56.1322 241.903 56.7246C242.405 57.3171 242.655 58.1396 242.655 59.1924V59.7803ZM241.507 58.8301C241.502 58.1829 241.345 57.6794 241.035 57.3193C240.73 56.9593 240.304 56.7793 239.757 56.7793C239.228 56.7793 238.779 56.9684 238.41 57.3467C238.041 57.7249 237.813 58.2194 237.727 58.8301H241.507ZM255.938 63H254.666L253.627 60.252H249.471L248.493 63H247.215L250.975 53.1973H252.164L255.938 63ZM253.251 59.2197L251.713 55.043C251.663 54.9062 251.613 54.6875 251.562 54.3867H251.535C251.49 54.6647 251.437 54.8835 251.378 55.043L249.854 59.2197H253.251ZM264.113 59.377H261.352V62.1318H260.442V59.377H257.688V58.4609H260.442V55.7061H261.352V58.4609H264.113V59.377ZM273.697 59.377H270.936V62.1318H270.026V59.377H267.271V58.4609H270.026V55.7061H270.936V58.4609H273.697V59.377Z" fill="#E7621C"/>
</svg>
